<svg xmlns="http://www.w3.org/2000/svg" xmlns:xlink="http://www.w3.org/1999/xlink" viewBox="0,0,256,256" width="48px" height="48px" fill-rule="nonzero"><g fill="#000000" fill-rule="nonzero" stroke="none" stroke-width="1" stroke-linecap="butt" stroke-linejoin="miter" stroke-miterlimit="10" stroke-dasharray="" stroke-dashoffset="0" font-family="none" font-weight="none" font-size="none" text-anchor="none" style="mix-blend-mode: normal"><g transform="scale(5.33333,5.33333)"><path d="M39.5,42h-9c-1,0 -1.9,-0.6 -2.3,-1.5c-0.4,-0.9 -0.2,-2 0.5,-2.7l8.3,-8.3v-3.9l-15.7,15.7c-0.5,0.5 -1.1,0.7 -1.8,0.7h-11c-1,0 -1.9,-0.6 -2.3,-1.5c-0.4,-0.9 -0.2,-2 0.5,-2.7l26.8,-26.8h-3.9l-19.3,19.3c-0.7,0.7 -1.8,0.9 -2.7,0.5c-1,-0.4 -1.6,-1.3 -1.6,-2.3v-11c0,-0.7 0.3,-1.3 0.7,-1.8l4.7,-4.7h-3c-1.3,0 -2.4,-1.1 -2.4,-2.5c0,-1.4 1.1,-2.5 2.5,-2.5h9c1,0 1.9,0.6 2.3,1.5c0.4,0.9 0.2,2 -0.5,2.7l-8.3,8.3v3.9l15.7,-15.7c0.5,-0.4 1.1,-0.7 1.8,-0.7h11c1,0 1.9,0.6 2.3,1.5c0.4,0.9 0.2,2 -0.5,2.7l-26.8,26.8h3.9l19.3,-19.3c0.7,-0.7 1.8,-0.9 2.7,-0.5c0.9,0.4 1.5,1.3 1.5,2.3v11c0,0.7 -0.3,1.3 -0.7,1.8l-4.7,4.7h3c1.4,0 2.5,1.1 2.5,2.5c0,1.4 -1.1,2.5 -2.5,2.5z"></path></g></g></svg>